<svg width="47" height="50" viewBox="0 0 47 50" fill="none" xmlns="http://www.w3.org/2000/svg">
<g id="icons8-facebook 1">
<path id="Vector" d="M9.79167 6.25C7.63162 6.25 5.875 8.11875 5.875 10.4167V39.5833C5.875 41.8812 7.63162 43.75 9.79167 43.75H22.758H28.2275H37.2083C39.3684 43.75 41.125 41.8812 41.125 39.5833V10.4167C41.125 8.11875 39.3684 6.25 37.2083 6.25H9.79167ZM9.79167 10.4167H37.2083L37.2122 39.5833H28.2275V31.3232H32.8595L33.5479 25.647H28.2581V22.0296C28.2581 20.388 28.6882 19.279 30.9011 19.279H33.6971V14.2131C32.3361 14.0651 30.9695 13.9932 29.6007 13.9974C25.5391 13.9974 22.758 16.6346 22.758 21.4762V25.6551H18.1681V31.3314H22.758V39.5833H9.79167V10.4167Z" fill="black"/>
</g>
</svg>
