<svg width="48" height="51" viewBox="0 0 48 51" fill="none" xmlns="http://www.w3.org/2000/svg">
<g id="icons8-github 1">
<path id="Vector" d="M24 4.25C12.9721 4.25 4 13.7828 4 25.5C4 37.2172 12.9721 46.75 24 46.75C35.0279 46.75 44 37.2172 44 25.5C44 13.7828 35.0279 4.25 24 4.25ZM24 7.4375C33.4066 7.4375 41 15.5055 41 25.5C41 33.6444 35.9569 40.5052 29 42.7677V37.3328C29 35.3033 27.8993 33.5629 26.3086 32.6968C27.8553 32.3824 29.2915 31.759 30.4979 30.8783C31.7044 29.9976 32.6464 28.885 33.2456 27.6328C33.8449 26.3807 34.0842 25.0252 33.9436 23.6787C33.8031 22.3322 33.2868 21.0336 32.4375 19.8907C32.881 18.4401 33.3765 15.8957 32.1992 13.8934C29.9293 13.8934 28.4647 15.5466 27.7656 16.5746C26.5706 16.1575 25.2918 15.9411 24 15.9375C22.7073 15.9387 21.4272 16.153 20.2305 16.5684C19.5297 15.5399 18.0662 13.8934 15.8008 13.8934C14.4497 16.1912 15.2849 18.6623 15.7324 19.6708C14.8258 20.8087 14.2572 22.1166 14.0756 23.4823C13.894 24.8479 14.1047 26.2307 14.6896 27.5119C15.2745 28.7932 16.2162 29.9348 17.434 30.839C18.6517 31.7431 20.1093 32.3827 21.6816 32.703C20.3755 33.4183 19.3973 34.7162 19.0977 36.291H17.7832C16.4862 36.291 15.9822 35.7311 15.2812 34.7865C14.5893 33.8419 13.8452 33.2072 12.9512 32.9437C12.4692 32.8895 12.1445 33.2791 12.5645 33.6244C13.9835 34.6508 14.0814 36.3306 14.6504 37.4303C15.1684 38.4205 16.2297 39.3125 17.4297 39.3125H19V42.7677C12.0431 40.5052 7 33.6444 7 25.5C7 15.5055 14.5934 7.4375 24 7.4375Z" fill="black"/>
</g>
</svg>
