<svg width="67" height="64" viewBox="0 0 67 64" fill="none" xmlns="http://www.w3.org/2000/svg">
<g id="icons8-&#208;&#187;&#208;&#184;&#208;&#189;&#208;&#186;&#208;&#181;&#208;&#180;&#208;&#184;&#208;&#189; 1">
<path id="Vector" d="M24.8878 12C13.458 12 12.5625 12.8544 12.5625 23.7734V40.2266C12.5625 51.1446 13.458 52 24.8878 52H42.1122C53.542 52 54.4375 51.1456 54.4375 40.2266V23.7734C54.4375 12.8544 53.543 12 42.1122 12H24.8878ZM22.1602 16H44.8398C49.8575 16 50.25 16.375 50.25 21.168V42.832C50.25 47.625 49.8564 48 44.8398 48H22.1602C17.1425 48 16.75 47.624 16.75 42.832V21.168C16.75 16.375 17.1425 16 22.1602 16ZM23.5567 18.5039C21.8514 18.5039 20.4693 19.8242 20.4693 21.4512C20.4693 23.0782 21.8503 24.4004 23.5567 24.4004C25.2579 24.4004 26.6401 23.0792 26.6401 21.4512C26.6401 19.8262 25.2579 18.5039 23.5567 18.5039ZM39.7117 26.3223C37.1364 26.3223 35.4089 27.6722 34.7023 28.9512H34.6287V26.7285H29.5517V43H34.8413V34.9492C34.8413 32.8262 35.2665 30.7715 38.0208 30.7715C40.7364 30.7715 40.7709 33.2009 40.7709 35.0879V43H46.0625V34.0742C46.0625 29.6922 45.0728 26.3223 39.7117 26.3223ZM20.9089 26.7285V43H26.2025V26.7285H20.9089Z" fill="black"/>
</g>
</svg>
